<svg width="24" height="24" viewBox="0 0 24 24" fill="none" xmlns="http://www.w3.org/2000/svg">
<g clip-path="url(#clip0_38_144)">
<path opacity="0.25" fill-rule="evenodd" clip-rule="evenodd" d="M5.2266 10.2267C2.21933 11.0119 0 13.7468 0 17.0001C0 20.8661 3.13401 24.0001 7 24.0001C10.2533 24.0001 12.9882 21.7808 13.7734 18.7735C13.4158 18.8669 13.0471 18.9326 12.6697 18.9685C11.855 21.3154 9.62424 23.0001 7 23.0001C3.68629 23.0001 1 20.3138 1 17.0001C1 14.3758 2.68473 12.1451 5.03162 11.3304C5.06744 10.953 5.13324 10.5843 5.2266 10.2267Z" fill="#A0A0A0"/>
<path opacity="0.5" fill-rule="evenodd" clip-rule="evenodd" d="M10.2266 5.22668C7.21933 6.01187 5 8.7468 5 12.0001C5 15.8661 8.13401 19.0001 12 19.0001C15.2533 19.0001 17.9882 16.7808 18.7734 13.7735C18.4158 13.8669 18.0471 13.9326 17.6697 13.9685C16.855 16.3154 14.6242 18.0001 12 18.0001C8.68629 18.0001 6 15.3138 6 12.0001C6 9.37585 7.68473 7.1451 10.0316 6.33042C10.0674 5.95298 10.1332 5.58426 10.2266 5.22668Z" fill="#A0A0A0"/>
<path d="M23.5 7.0001C23.5 10.59 20.5899 13.5001 17 13.5001C13.4101 13.5001 10.5 10.59 10.5 7.0001C10.5 3.41025 13.4101 0.500103 17 0.500103C20.5899 0.500103 23.5 3.41025 23.5 7.0001Z" stroke="#A0A0A0"/>
<path d="M17 4L15 9" stroke="#A0A0A0" stroke-linecap="round"/>
<path d="M17 4L19 9" stroke="#A0A0A0" stroke-linecap="round"/>
<path d="M16 7.5H18" stroke="#A0A0A0" stroke-linecap="round"/>
</g>
<defs>
<clipPath id="clip0_38_144">
<rect width="24" height="24" fill="white"/>
</clipPath>
</defs>
</svg>
