<svg width="24" height="24" viewBox="0 0 24 24" fill="none" xmlns="http://www.w3.org/2000/svg">
<path d="M4.68255 22L2.99999 22C2.44771 22 2 21.5523 2 21V19.3174C2 19.0522 2.10536 18.7978 2.29289 18.6103L14.1961 6.70712C14.5866 6.3166 15.2198 6.3166 15.6103 6.70712L17.2929 8.38966C17.6834 8.78019 17.6834 9.41336 17.2929 9.80388L5.38966 21.7071C5.20212 21.8946 4.94777 22 4.68255 22Z" fill="#A0A0A0"/>
<path d="M18.5658 7.29287L17.6366 6.36364L16.7073 5.43457C16.3167 5.04407 16.3166 4.41085 16.7072 4.02029L18.0202 2.70716C18.4107 2.31661 19.0439 2.3166 19.4344 2.70714L21.2929 4.56566C21.6834 4.95618 21.6834 5.58933 21.2929 5.97985L19.98 7.29285C19.5895 7.68339 18.9563 7.6834 18.5658 7.29287Z" fill="#A0A0A0"/>
</svg>
