<svg width="24" height="24" viewBox="0 0 24 24" fill="none" xmlns="http://www.w3.org/2000/svg">
<path d="M12.0002 4.9288L9.87884 7.05012C9.48993 7.43903 9.48993 8.07542 9.87884 8.46433C10.2677 8.85324 10.9041 8.85324 11.293 8.46433L13.4144 6.34301C14.5811 5.17629 16.4903 5.17629 17.657 6.34301C18.8237 7.50974 18.8237 9.41893 17.657 10.5857L15.5357 12.707C15.1468 13.0959 15.1468 13.7323 15.5357 14.1212C15.9246 14.5101 16.561 14.5101 16.9499 14.1212L19.0712 11.9999C21.0228 10.0483 21.0228 6.88041 19.0712 4.9288C17.1196 2.97718 13.9518 2.97718 12.0002 4.9288ZM9.17173 14.8283C9.56064 15.2172 10.197 15.2172 10.5859 14.8283L14.8286 10.5857C15.2175 10.1967 15.2175 9.56035 14.8286 9.17144C14.4397 8.78253 13.8033 8.78253 13.4144 9.17144L9.17173 13.4141C8.78282 13.803 8.78282 14.4394 9.17173 14.8283ZM12.7073 15.5354L10.5859 17.6567C9.41922 18.8234 7.51003 18.8234 6.3433 17.6567C5.17658 16.49 5.17658 14.5808 6.3433 13.4141L8.46462 11.2928C8.85353 10.9039 8.85353 10.2675 8.46462 9.87855C8.07571 9.48964 7.43932 9.48964 7.05041 9.87855L4.92909 11.9999C2.97747 13.9515 2.97747 17.1193 4.92909 19.0709C6.8807 21.0225 10.0485 21.0225 12.0002 19.0709L14.1215 16.9496C14.5104 16.5607 14.5104 15.9243 14.1215 15.5354C13.7326 15.1465 13.0962 15.1465 12.7073 15.5354Z" fill="#09CCFF"/>
</svg>
