<svg width="103" height="94" viewBox="0 0 103 94" fill="none" xmlns="http://www.w3.org/2000/svg">
<g clip-path="url(#clip0_124_491)">
<path d="M50.4201 26.8284H28.1001V45.8433H41.0601" stroke="#09CCFF" stroke-width="7"/>
<path d="M34.22 36.3359H46.82V49.5001" stroke="#09CCFF" stroke-width="7"/>
<path d="M56.1799 26.8284H74.8999V45.8433H56.1799V26.8284Z" stroke="#09CCFF" stroke-width="7"/>
<path fill-rule="evenodd" clip-rule="evenodd" d="M29.1799 20.9776H36.4299C37.478 13.5348 43.7796 7.81343 51.3968 7.81343C59.0139 7.81343 65.3157 13.5348 66.3636 20.9776H73.6137C72.5272 9.48587 62.9951 0.5 51.3968 0.5C39.7985 0.5 30.2663 9.48587 29.1799 20.9776Z" fill="#09CCFF"/>
</g>
<path d="M9.68458 71.9533H8.97792V66.7267H6.99125V71.78H6.29792V61.78H6.99125V66.0333H8.97792V61.7133H9.68458V71.9533ZM3.19125 70.5933C3.60014 70.5933 4.00014 70.5578 4.39125 70.4867C4.79125 70.4067 5.14681 70.3044 5.45792 70.18V70.86C5.16458 70.9844 4.80458 71.0867 4.37792 71.1667C3.96014 71.2378 3.52903 71.2733 3.08458 71.2733H0.857917V62.1533H5.04458V62.8333H1.55125V70.5933H3.19125ZM11.7365 62.7267V62.02H19.9365V66.5933H19.2032V62.7267H11.7365ZM16.1765 68.3267V72.1933H15.4432V68.3267H11.0432V67.58H20.6965V68.3267H16.1765ZM30.5351 71.9533H29.8151V61.7133H30.5351V71.9533ZM25.7751 62.0067C25.7573 63.6333 25.6195 65.0644 25.3618 66.3L28.6551 70.8067L28.0818 71.2467L25.1484 67.18C24.8195 68.3978 24.3751 69.3622 23.8151 70.0733C23.2551 70.7844 22.5929 71.1844 21.8284 71.2733V70.54C22.5129 70.4156 23.0951 69.9533 23.5751 69.1533C24.0551 68.3533 24.4151 67.3311 24.6551 66.0867C24.904 64.8333 25.0329 63.4689 25.0418 61.9933L25.7751 62.0067ZM34.6504 63.3667V62.7533H36.9171V61.5667H37.6371V62.7533H39.8104V63.3667H34.6504ZM40.6638 67.7V61.78H41.3571V64.2733H43.3038V61.7133H43.9971V68.06H43.3038V64.9533H41.3571V67.7H40.6638ZM39.5304 65.9533C39.5304 66.5222 39.3171 66.98 38.8904 67.3267C38.4638 67.6644 37.9304 67.8333 37.2904 67.8333C36.6504 67.8333 36.1171 67.6644 35.6904 67.3267C35.2638 66.98 35.0504 66.5222 35.0504 65.9533C35.0504 65.3844 35.2638 64.9311 35.6904 64.5933C36.1171 64.2556 36.6504 64.0867 37.2904 64.0867C37.9304 64.0867 38.4638 64.2556 38.8904 64.5933C39.3171 64.9311 39.5304 65.3844 39.5304 65.9533ZM35.7304 65.9533C35.7304 66.3089 35.8726 66.6111 36.1571 66.86C36.4415 67.1 36.8193 67.22 37.2904 67.22C37.7615 67.22 38.1393 67.1 38.4238 66.86C38.7082 66.6111 38.8504 66.3089 38.8504 65.9533C38.8504 65.5978 38.7082 65.3 38.4238 65.06C38.1393 64.8111 37.7615 64.6867 37.2904 64.6867C36.8193 64.6867 36.4415 64.8111 36.1571 65.06C35.8726 65.3 35.7304 65.5978 35.7304 65.9533ZM39.9171 68.3667C41.1704 68.3667 42.1838 68.5089 42.9571 68.7933C43.7393 69.0778 44.1304 69.5222 44.1304 70.1267C44.1304 70.74 43.7393 71.1889 42.9571 71.4733C42.1838 71.7578 41.1704 71.9 39.9171 71.9C38.6638 71.9 37.646 71.7578 36.8638 71.4733C36.0904 71.1889 35.7038 70.74 35.7038 70.1267C35.7038 69.5222 36.0904 69.0778 36.8638 68.7933C37.646 68.5089 38.6638 68.3667 39.9171 68.3667ZM39.9171 71.26C40.9304 71.26 41.7615 71.1667 42.4104 70.98C43.0593 70.7844 43.3837 70.5 43.3837 70.1267C43.3837 69.7533 43.0593 69.4733 42.4104 69.2867C41.7615 69.0911 40.9304 68.9933 39.9171 68.9933C38.9038 68.9933 38.0726 69.0911 37.4237 69.2867C36.7749 69.4733 36.4504 69.7533 36.4504 70.1267C36.4504 70.5 36.7749 70.7844 37.4237 70.98C38.0726 71.1667 38.9038 71.26 39.9171 71.26ZM54.009 66.78V71.9533H53.289V61.7133H54.009V66.0733H55.489V66.78H54.009ZM49.369 62.0067C49.3512 63.6867 49.2223 65.1356 48.9823 66.3533L52.1823 70.8067L51.609 71.2467L48.7557 67.2333C48.4357 68.4333 48.0001 69.3844 47.449 70.0867C46.8979 70.7889 46.2446 71.1844 45.489 71.2733V70.54C46.1735 70.4156 46.7512 69.9533 47.2223 69.1533C47.6935 68.3533 48.0446 67.3311 48.2757 66.0867C48.5068 64.8422 48.6268 63.4778 48.6357 61.9933L49.369 62.0067ZM64.1676 71.9533V61.7133H64.8743V71.9533H64.1676ZM59.2343 62.0067C59.8032 62.0067 60.3098 62.1444 60.7543 62.42C61.2076 62.6867 61.5587 63.06 61.8076 63.54C62.0654 64.02 62.1943 64.5667 62.1943 65.18C62.1943 65.7844 62.0654 66.3267 61.8076 66.8067C61.5587 67.2867 61.2076 67.6644 60.7543 67.94C60.3098 68.2067 59.8032 68.34 59.2343 68.34C58.6654 68.34 58.1543 68.2067 57.7009 67.94C57.2565 67.6644 56.9054 67.2867 56.6476 66.8067C56.3987 66.3267 56.2743 65.7844 56.2743 65.18C56.2743 64.5667 56.3987 64.02 56.6476 63.54C56.9054 63.06 57.2565 62.6867 57.7009 62.42C58.1543 62.1444 58.6654 62.0067 59.2343 62.0067ZM59.2343 62.6867C58.7898 62.6867 58.3987 62.7978 58.0609 63.02C57.7232 63.2333 57.4565 63.5311 57.2609 63.9133C57.0743 64.2867 56.9809 64.7089 56.9809 65.18C56.9809 65.6422 57.0743 66.0644 57.2609 66.4467C57.4565 66.82 57.7232 67.1133 58.0609 67.3267C58.3987 67.54 58.7898 67.6467 59.2343 67.6467C59.6787 67.6467 60.0698 67.54 60.4076 67.3267C60.7543 67.1133 61.0209 66.82 61.2076 66.4467C61.3943 66.0644 61.4876 65.6422 61.4876 65.18C61.4876 64.7089 61.3943 64.2867 61.2076 63.9133C61.0209 63.5311 60.7543 63.2333 60.4076 63.02C60.0698 62.7978 59.6787 62.6867 59.2343 62.6867ZM63.2076 70.7533C62.8698 70.9222 62.3898 71.0511 61.7676 71.14C61.1454 71.2289 60.4254 71.2733 59.6076 71.2733H55.9143V70.5667H59.6743C60.4654 70.5667 61.1676 70.5222 61.7809 70.4333C62.3943 70.3444 62.8698 70.2156 63.2076 70.0467V70.7533ZM78.7629 71.3933H69.1096V70.6867H73.5629V67.8067H69.8163V62.1533H78.0563V67.8067H74.2829V70.6867H78.7629V71.3933ZM77.3363 67.1V62.86H70.5229V67.1H77.3363ZM81.1482 62.5533V65.1667H88.6948V65.82H80.4282V61.9H88.5882V62.5533H81.1482ZM79.6682 67.8333V67.1667H89.3215V67.8333H79.6682ZM88.8015 71.0867V71.7667H80.4015V68.8067H81.1348V71.0867H88.8015ZM98.3568 65.1133C97.9924 65.9489 97.3702 66.58 96.4902 67.0067C95.6102 67.4244 94.5213 67.6333 93.2235 67.6333V66.9267C94.7346 66.9267 95.9079 66.6244 96.7435 66.02C97.579 65.4067 97.9968 64.5044 97.9968 63.3133V62.7133H93.2235V62.0333H98.7302V63.2467C98.7302 63.6556 98.6813 64.0467 98.5835 64.42H101.157V61.7133H101.877V68.74H101.157V65.1133H98.3568ZM97.7968 69.6467C97.3168 70.2867 96.7079 70.7978 95.9702 71.18C95.2324 71.5533 94.4724 71.7444 93.6902 71.7533V71.0333C94.3124 71.0244 94.9213 70.8822 95.5168 70.6067C96.1124 70.3222 96.6235 69.9267 97.0502 69.42C97.4857 68.9133 97.7702 68.3356 97.9035 67.6867L98.6502 67.82C98.5257 68.3356 98.3702 68.7533 98.1835 69.0733L102.317 71.2333L101.983 71.8867L97.7968 69.6467Z" fill="#79B4C3"/>
<path d="M36.6238 91.1044H34.526V84.8467H33.1215V90.8733H31.0415V77.5044H33.1215V82.6067H34.526V77.4511H36.6238V91.1044ZM27.3082 88.3311C27.8534 88.3311 28.3986 88.2896 28.9437 88.2067C29.4889 88.1237 29.9512 88.0052 30.3304 87.8511V89.8956C29.9512 90.0615 29.4652 90.1919 28.8726 90.2867C28.28 90.3696 27.6875 90.4111 27.0949 90.4111H24.126V77.8244H29.7793V79.9044H26.2771V88.3311H27.3082ZM38.6841 79.8511V77.6644H50.2041V84.0467H47.8752V79.8511H38.6841ZM45.5463 87.1756V91.4244H43.2174V87.1756H37.9197V84.9533H51.0041V87.1756H45.5463ZM65.0822 90.5711H51.9978V88.3667H57.4022V85.8244H52.7444V77.8244H64.3178V85.8244H59.6778V88.3667H65.0822V90.5711ZM62.0778 83.6378V80.0289H55.0022V83.6378H62.0778ZM78.1292 84.8822V91.1044H75.8892V77.4511H78.1292V82.6067H79.747V84.8822H78.1292ZM70.3603 77.6644C71.5929 77.6644 72.5589 78.2037 73.2581 79.2822C73.9692 80.3489 74.3248 81.9607 74.3248 84.1178C74.3248 86.2748 73.9692 87.8926 73.2581 88.9711C72.5589 90.0378 71.5929 90.5711 70.3603 90.5711C69.1278 90.5711 68.1559 90.0378 67.4448 88.9711C66.7337 87.8926 66.3781 86.2748 66.3781 84.1178C66.3781 81.9607 66.7337 80.3489 67.4448 79.2822C68.1559 78.2037 69.1278 77.6644 70.3603 77.6644ZM70.3603 88.42C70.8937 88.42 71.3144 88.0822 71.6226 87.4067C71.9307 86.7311 72.0848 85.6348 72.0848 84.1178C72.0848 82.6126 71.9307 81.5222 71.6226 80.8467C71.3144 80.1593 70.8937 79.8156 70.3603 79.8156C69.8152 79.8156 69.3826 80.1593 69.0626 80.8467C68.7544 81.5222 68.6003 82.6126 68.6003 84.1178C68.6003 86.9859 69.187 88.42 70.3603 88.42Z" fill="#00315A"/>
<defs>
<clipPath id="clip0_124_491">
<rect width="54" height="49" fill="white" transform="translate(24.5 0.5)"/>
</clipPath>
</defs>
</svg>
