<svg width="32" height="48" viewBox="0 0 32 48" fill="none" xmlns="http://www.w3.org/2000/svg">
<path d="M28 39.6798L26.22 28.9798C26.1632 28.6435 26.0212 28.3272 25.8077 28.0612C25.5942 27.7951 25.3161 27.5881 25 27.4598C24.6752 27.3193 24.319 27.2675 23.9676 27.3097C23.6162 27.3518 23.2823 27.4865 23 27.6998C20.9542 29.1508 18.5081 29.9302 16 29.9302C13.4919 29.9302 11.0458 29.1508 9.00001 27.6998C8.71769 27.4865 8.3838 27.3518 8.03243 27.3097C7.68107 27.2675 7.32481 27.3193 7.00001 27.4598C6.6839 27.5881 6.40586 27.7951 6.19233 28.0612C5.97879 28.3272 5.83685 28.6435 5.78001 28.9798L4.00001 39.6798C3.94754 39.9982 3.97288 40.3246 4.07388 40.6311C4.17487 40.9375 4.34853 41.215 4.58001 41.4398C4.9607 41.8069 5.47126 42.0082 6.00001 41.9998H6.40001L16 39.9998L25.6 41.9998C25.9229 42.0716 26.2585 42.0622 26.5769 41.9724C26.8952 41.8827 27.1863 41.7154 27.4241 41.4855C27.662 41.2556 27.839 40.9703 27.9395 40.6552C28.04 40.3401 28.0608 40.005 28 39.6798Z" fill="#09CCFF"/>
<path d="M30.5 22C30.5 30.0081 24.0081 36.5 16 36.5C7.99187 36.5 1.5 30.0081 1.5 22C1.5 13.9919 7.99187 7.5 16 7.5C24.0081 7.5 30.5 13.9919 30.5 22Z" fill="white" stroke="#09CCFF" stroke-width="3"/>
<path d="M18.1751 27.3327C17.901 27.3339 17.6304 27.2675 17.3838 27.1386L15.9451 26.3816L14.5065 27.1386C14.216 27.2777 13.8965 27.3312 13.5806 27.2937C13.2647 27.2562 12.9637 27.129 12.7081 26.9251C12.4356 26.7046 12.2267 26.4051 12.1058 26.0615C11.9848 25.7179 11.9567 25.3442 12.0248 24.9841L12.2586 23.5865L11.2155 22.5772C10.9794 22.331 10.8103 22.0197 10.7264 21.6771C10.6425 21.3344 10.6472 20.9736 10.7398 20.6336C10.8325 20.2936 11.0096 19.9875 11.2519 19.7485C11.4943 19.5094 11.7927 19.3465 12.1147 19.2775L13.6792 19.0445L14.3626 17.6858C14.5167 17.3777 14.7451 17.1203 15.0237 16.9409C15.3023 16.7615 15.6207 16.6667 15.9451 16.6667C16.2695 16.6667 16.5879 16.7615 16.8665 16.9409C17.1451 17.1203 17.3736 17.3777 17.5277 17.6858L18.211 19.0445L19.7756 19.2775C20.1147 19.3269 20.4338 19.4797 20.6952 19.718C20.9567 19.9563 21.1498 20.2701 21.2517 20.6227C21.3537 20.9753 21.3603 21.352 21.2709 21.7085C21.1814 22.065 20.9996 22.3866 20.7467 22.6354L19.7036 23.6448L19.9374 25.0423C20.0055 25.4025 19.9774 25.7761 19.8564 26.1197C19.7354 26.4633 19.5266 26.7628 19.2541 26.9833C18.9383 27.2215 18.5601 27.344 18.1751 27.3327Z" fill="#09CCFF"/>
</svg>
