<svg width="24" height="24" viewBox="0 0 24 24" fill="none" xmlns="http://www.w3.org/2000/svg">
<path d="M11.0698 4.35639L9.52253 8.27626C9.37179 8.65814 9.00294 8.90909 8.59237 8.90909H4.50454C3.60122 8.90909 3.16088 10.0119 3.81579 10.6341L7.02568 13.6835C7.29018 13.9348 7.39685 14.3102 7.304 14.663L6.22502 18.7631C6.00204 19.6104 6.89916 20.3145 7.66918 19.8965L11.5229 17.8044C11.8205 17.6429 12.1795 17.6429 12.4771 17.8044L16.3308 19.8965C17.1008 20.3145 17.998 19.6104 17.775 18.7631L16.696 14.663C16.6032 14.3102 16.7098 13.9348 16.9743 13.6835L20.1842 10.6341C20.8391 10.0119 20.3988 8.90909 19.4955 8.90909H15.4076C14.9971 8.90909 14.6282 8.65814 14.4775 8.27626L12.9302 4.35639C12.5971 3.51262 11.4029 3.51262 11.0698 4.35639Z" fill="#FFE500"/>
</svg>
