<svg width="66" height="16" viewBox="0 0 66 16" fill="none" xmlns="http://www.w3.org/2000/svg">
<g clip-path="url(#clip0_130_1447)">
<path d="M8.65997 8.59692H1.6333V14.8059H5.7133" stroke="#09CCFF" stroke-width="2"/>
<path d="M3.56006 11.7014H7.52673V15.8273" stroke="#09CCFF" stroke-width="2"/>
<path d="M10.4734 8.59692H16.3667V14.8059H10.4734V8.59692Z" stroke="#09CCFF" stroke-width="2"/>
<path fill-rule="evenodd" clip-rule="evenodd" d="M1.97339 6.68657H4.25577C4.58573 4.25626 6.56958 2.38806 8.96757 2.38806C11.3656 2.38806 13.3494 4.25626 13.6794 6.68657H15.9618C15.6197 2.93416 12.6189 0 8.96757 0C5.31626 0 2.31541 2.93416 1.97339 6.68657Z" fill="#09CCFF"/>
</g>
<path d="M32.7628 13.4533H31.4028V8.62667H30.1228V13.28H28.7761V3.26667H30.1228V7.2H31.4028V3.21333H32.7628V13.4533ZM25.9095 11.56C26.3095 11.56 26.7095 11.5289 27.1095 11.4667C27.5184 11.3956 27.8739 11.3022 28.1761 11.1867V12.5067C27.8917 12.6311 27.5273 12.7289 27.0828 12.8C26.6473 12.8622 26.2073 12.8933 25.7628 12.8933H23.5361V3.53333H27.7495V4.86667H24.9095V11.56H25.9095ZM34.4414 4.81333V3.41333H42.9614V8.14667H41.4681V4.81333H34.4414ZM39.4014 10.3333V13.6933H37.9081V10.3333H33.8281V8.90667H43.6014V10.3333H39.4014ZM54.16 13.0133H44.3867V11.6H48.5467V9.45333H44.9867V3.53333H53.56V9.45333H50V11.6H54.16V13.0133ZM52.12 8.04V4.94667H46.44V8.04H52.12ZM63.8919 8.66667V13.4533H62.4519V3.21333H63.8919V7.2H65.1719V8.66667H63.8919ZM58.1586 3.4C59.0741 3.4 59.7941 3.80444 60.3186 4.61333C60.843 5.41333 61.1053 6.61333 61.1053 8.21333C61.1053 9.81333 60.843 11.0178 60.3186 11.8267C59.7941 12.6267 59.0741 13.0267 58.1586 13.0267C57.2519 13.0267 56.5319 12.6267 55.9986 11.8267C55.4741 11.0178 55.2119 9.81333 55.2119 8.21333C55.2119 6.61333 55.4741 5.41333 55.9986 4.61333C56.5319 3.80444 57.2519 3.4 58.1586 3.4ZM58.1586 11.6267C58.6208 11.6267 58.9853 11.3556 59.2519 10.8133C59.5275 10.2622 59.6653 9.39556 59.6653 8.21333C59.6653 7.03111 59.5275 6.16889 59.2519 5.62667C58.9853 5.07556 58.6208 4.8 58.1586 4.8C57.6964 4.8 57.3275 5.07556 57.0519 5.62667C56.7764 6.16889 56.6386 7.03111 56.6386 8.21333C56.6386 9.38667 56.7764 10.2489 57.0519 10.8C57.3275 11.3511 57.6964 11.6267 58.1586 11.6267Z" fill="#09CCFF"/>
<defs>
<clipPath id="clip0_130_1447">
<rect width="17" height="16" fill="white" transform="translate(0.5)"/>
</clipPath>
</defs>
</svg>
