<svg width="262" height="94" viewBox="0 0 262 94" fill="none" xmlns="http://www.w3.org/2000/svg">
<g clip-path="url(#clip0_400_633)">
<path d="M49.92 50.5076H6.93332V86.9852H31.8933" stroke="#09CCFF" stroke-width="14"/>
<path d="M18.72 68.7463H42.9867V94.0001" stroke="#09CCFF" stroke-width="14"/>
<path d="M61.0133 50.5076H97.0667V86.9852H61.0133V50.5076Z" stroke="#09CCFF" stroke-width="14"/>
<path fill-rule="evenodd" clip-rule="evenodd" d="M9.01334 39.2836H22.9762C24.9947 25.0055 37.1312 14.0299 51.8013 14.0299C66.4714 14.0299 78.6081 25.0055 80.6264 39.2836H94.5894C92.4969 17.2382 74.1388 0 51.8013 0C29.4638 0 11.1057 17.2382 9.01334 39.2836Z" fill="#09CCFF"/>
</g>
<path d="M137.246 35.1044H136.304V28.1356H133.655V34.8733H132.731V21.54H133.655V27.2111H136.304V21.4511H137.246V35.1044ZM128.588 33.2911C129.134 33.2911 129.667 33.2437 130.188 33.1489C130.722 33.0422 131.196 32.9059 131.611 32.74V33.6467C131.219 33.8126 130.739 33.9489 130.171 34.0556C129.614 34.1504 129.039 34.1978 128.446 34.1978H125.477V22.0378H131.059V22.9444H126.402V33.2911H128.588ZM139.982 22.8022V21.86H150.915V27.9578H149.938V22.8022H139.982ZM145.902 30.2689V35.4244H144.924V30.2689H139.058V29.2733H151.929V30.2689H145.902ZM165.047 35.1044H164.087V21.4511H165.047V35.1044ZM158.7 21.8422C158.676 24.0111 158.493 25.9193 158.149 27.5667L162.54 33.5756L161.776 34.1622L157.865 28.74C157.426 30.3637 156.833 31.6496 156.087 32.5978C155.34 33.5459 154.457 34.0793 153.438 34.1978V33.22C154.351 33.0541 155.127 32.4378 155.767 31.3711C156.407 30.3044 156.887 28.9415 157.207 27.2822C157.539 25.6111 157.711 23.7919 157.722 21.8244L158.7 21.8422ZM170.534 23.6556V22.8378H173.556V21.2556H174.516V22.8378H177.414V23.6556H170.534ZM178.552 29.4333V21.54H179.476V24.8644H182.072V21.4511H182.996V29.9133H182.072V25.7711H179.476V29.4333H178.552ZM177.041 27.1044C177.041 27.863 176.756 28.4733 176.187 28.9356C175.618 29.3859 174.907 29.6111 174.054 29.6111C173.201 29.6111 172.489 29.3859 171.921 28.9356C171.352 28.4733 171.067 27.863 171.067 27.1044C171.067 26.3459 171.352 25.7415 171.921 25.2911C172.489 24.8407 173.201 24.6156 174.054 24.6156C174.907 24.6156 175.618 24.8407 176.187 25.2911C176.756 25.7415 177.041 26.3459 177.041 27.1044ZM171.974 27.1044C171.974 27.5785 172.164 27.9815 172.543 28.3133C172.922 28.6333 173.426 28.7933 174.054 28.7933C174.682 28.7933 175.186 28.6333 175.565 28.3133C175.944 27.9815 176.134 27.5785 176.134 27.1044C176.134 26.6304 175.944 26.2333 175.565 25.9133C175.186 25.5815 174.682 25.4156 174.054 25.4156C173.426 25.4156 172.922 25.5815 172.543 25.9133C172.164 26.2333 171.974 26.6304 171.974 27.1044ZM177.556 30.3222C179.227 30.3222 180.578 30.5119 181.609 30.8911C182.652 31.2704 183.174 31.863 183.174 32.6689C183.174 33.4867 182.652 34.0852 181.609 34.4644C180.578 34.8437 179.227 35.0333 177.556 35.0333C175.885 35.0333 174.528 34.8437 173.485 34.4644C172.454 34.0852 171.938 33.4867 171.938 32.6689C171.938 31.863 172.454 31.2704 173.485 30.8911C174.528 30.5119 175.885 30.3222 177.556 30.3222ZM177.556 34.18C178.907 34.18 180.015 34.0556 180.881 33.8067C181.746 33.5459 182.178 33.1667 182.178 32.6689C182.178 32.1711 181.746 31.7978 180.881 31.5489C180.015 31.2881 178.907 31.1578 177.556 31.1578C176.205 31.1578 175.097 31.2881 174.232 31.5489C173.366 31.7978 172.934 32.1711 172.934 32.6689C172.934 33.1667 173.366 33.5459 174.232 33.8067C175.097 34.0556 176.205 34.18 177.556 34.18ZM196.345 28.2067V35.1044H195.385V21.4511H196.345V27.2644H198.319V28.2067H196.345ZM190.159 21.8422C190.135 24.0822 189.963 26.0141 189.643 27.6378L193.91 33.5756L193.145 34.1622L189.341 28.8111C188.914 30.4111 188.333 31.6793 187.599 32.6156C186.864 33.5519 185.993 34.0793 184.985 34.1978V33.22C185.898 33.0541 186.668 32.4378 187.296 31.3711C187.925 30.3044 188.393 28.9415 188.701 27.2822C189.009 25.623 189.169 23.8037 189.181 21.8244L190.159 21.8422ZM209.89 35.1044V21.4511H210.832V35.1044H209.89ZM203.312 21.8422C204.071 21.8422 204.746 22.0259 205.339 22.3933C205.943 22.7489 206.412 23.2467 206.743 23.8867C207.087 24.5267 207.259 25.2556 207.259 26.0733C207.259 26.8793 207.087 27.6022 206.743 28.2422C206.412 28.8822 205.943 29.3859 205.339 29.7533C204.746 30.1089 204.071 30.2867 203.312 30.2867C202.554 30.2867 201.872 30.1089 201.268 29.7533C200.675 29.3859 200.207 28.8822 199.863 28.2422C199.532 27.6022 199.366 26.8793 199.366 26.0733C199.366 25.2556 199.532 24.5267 199.863 23.8867C200.207 23.2467 200.675 22.7489 201.268 22.3933C201.872 22.0259 202.554 21.8422 203.312 21.8422ZM203.312 22.7489C202.72 22.7489 202.198 22.897 201.748 23.1933C201.298 23.4778 200.942 23.8748 200.681 24.3844C200.432 24.8822 200.308 25.4452 200.308 26.0733C200.308 26.6896 200.432 27.2526 200.681 27.7622C200.942 28.26 201.298 28.6511 201.748 28.9356C202.198 29.22 202.72 29.3622 203.312 29.3622C203.905 29.3622 204.426 29.22 204.877 28.9356C205.339 28.6511 205.695 28.26 205.943 27.7622C206.192 27.2526 206.317 26.6896 206.317 26.0733C206.317 25.4452 206.192 24.8822 205.943 24.3844C205.695 23.8748 205.339 23.4778 204.877 23.1933C204.426 22.897 203.905 22.7489 203.312 22.7489ZM208.61 33.5044C208.16 33.7296 207.52 33.9015 206.69 34.02C205.861 34.1385 204.901 34.1978 203.81 34.1978H198.886V33.2556H203.899C204.954 33.2556 205.89 33.1963 206.708 33.0778C207.526 32.9593 208.16 32.7874 208.61 32.5622V33.5044ZM229.351 34.3578H216.479V33.4156H222.417V29.5756H217.422V22.0378H228.408V29.5756H223.377V33.4156H229.351V34.3578ZM227.448 28.6333V22.98H218.364V28.6333H227.448ZM232.531 22.5711V26.0556H242.593V26.9267H231.571V21.7H242.451V22.5711H232.531ZM230.558 29.6111V28.7222H243.429V29.6111H230.558ZM242.735 33.9489V34.8556H231.535V30.9089H232.513V33.9489H242.735ZM255.476 25.9844C254.99 27.0985 254.16 27.94 252.987 28.5089C251.814 29.0659 250.362 29.3444 248.631 29.3444V28.4022C250.646 28.4022 252.211 27.9993 253.325 27.1933C254.439 26.3756 254.996 25.1726 254.996 23.5844V22.7844H248.631V21.8778H255.974V23.4956C255.974 24.0407 255.908 24.5622 255.778 25.06H259.209V21.4511H260.169V30.82H259.209V25.9844H255.476ZM254.729 32.0289C254.089 32.8822 253.277 33.5637 252.294 34.0733C251.31 34.5711 250.297 34.8259 249.254 34.8378V33.8778C250.083 33.8659 250.895 33.6763 251.689 33.3089C252.483 32.9296 253.165 32.4022 253.734 31.7267C254.314 31.0511 254.694 30.2807 254.871 29.4156L255.867 29.5933C255.701 30.2807 255.494 30.8378 255.245 31.2644L260.756 34.1444L260.311 35.0156L254.729 32.0289Z" fill="#79B4C3"/>
<path d="M165.107 70.6333H161.174V58.9H158.54V70.2H154.64V45.1333H158.54V54.7H161.174V45.0333H165.107V70.6333ZM147.64 65.4333C148.663 65.4333 149.685 65.3556 150.707 65.2C151.729 65.0444 152.596 64.8222 153.307 64.5333V68.3667C152.596 68.6778 151.685 68.9222 150.574 69.1C149.463 69.2556 148.351 69.3333 147.24 69.3333H141.674V45.7333H152.274V49.6333H145.707V65.4333H147.64ZM168.97 49.5333V45.4333H190.57V57.4H186.204V49.5333H168.97ZM181.837 63.2667V71.2333H177.47V63.2667H167.537V59.1H192.07V63.2667H181.837ZM218.467 69.6333H193.933V65.5H204.067V60.7333H195.333V45.7333H217.033V60.7333H208.333V65.5H218.467V69.6333ZM212.833 56.6333V49.8667H199.567V56.6333H212.833ZM242.93 58.9667V70.6333H238.73V45.0333H242.93V54.7H245.963V58.9667H242.93ZM228.363 45.4333C230.674 45.4333 232.485 46.4444 233.796 48.4667C235.13 50.4667 235.796 53.4889 235.796 57.5333C235.796 61.5778 235.13 64.6111 233.796 66.6333C232.485 68.6333 230.674 69.6333 228.363 69.6333C226.052 69.6333 224.23 68.6333 222.896 66.6333C221.563 64.6111 220.896 61.5778 220.896 57.5333C220.896 53.4889 221.563 50.4667 222.896 48.4667C224.23 46.4444 226.052 45.4333 228.363 45.4333ZM228.363 65.6C229.363 65.6 230.152 64.9667 230.73 63.7C231.308 62.4333 231.596 60.3778 231.596 57.5333C231.596 54.7111 231.308 52.6667 230.73 51.4C230.152 50.1111 229.363 49.4667 228.363 49.4667C227.341 49.4667 226.53 50.1111 225.93 51.4C225.352 52.6667 225.063 54.7111 225.063 57.5333C225.063 62.9111 226.163 65.6 228.363 65.6Z" fill="#00315A"/>
<defs>
<clipPath id="clip0_400_633">
<rect width="104" height="94" fill="white"/>
</clipPath>
</defs>
</svg>
